<?xml version="1.0" standalone="no"?>
<!DOCTYPE svg PUBLIC "-//W3C//DTD SVG 20010904//EN"
 "http://www.w3.org/TR/2001/REC-SVG-20010904/DTD/svg10.dtd">
<svg version="1.0" xmlns="http://www.w3.org/2000/svg"
 width="112.000000pt" height="118.000000pt" viewBox="0 0 112.000000 118.000000"
 preserveAspectRatio="xMidYMid meet">
<metadata>
Created by potrace 1.16, written by Peter Selinger 2001-2019
</metadata>
<g transform="translate(0.000000,118.000000) scale(0.100000,-0.100000)"
fill="#000000" stroke="none">
<path d="M350 775 l0 -55 -98 0 -98 0 11 -115 c6 -63 16 -120 23 -127 14 -14
112 -17 159 -5 l32 8 3 -47 3 -48 88 -19 c85 -18 89 -18 174 0 l88 19 17 165
c9 90 17 190 17 222 l1 57 -210 0 -210 0 0 -55z m400 18 c0 -30 -31 -367 -35
-380 -2 -6 -27 -16 -57 -22 -29 -7 -63 -14 -75 -17 -18 -5 -22 -1 -25 23 -3
24 -9 29 -48 37 -25 5 -46 10 -47 10 0 1 -4 18 -8 39 -7 36 -6 37 23 37 16 0
32 -6 35 -14 3 -7 15 -16 26 -19 18 -4 21 -1 21 29 l0 34 -54 0 -55 0 -5 43
c-3 23 -8 68 -11 100 l-6 57 65 0 66 0 0 30 0 30 95 0 c84 0 95 -2 95 -17z
m-400 -117 c0 -18 2 -62 5 -97 3 -45 2 -55 -4 -34 l-9 30 -1 -30 c0 -17 4 -36
10 -42 7 -7 6 -12 -5 -16 -8 -3 -18 -2 -21 3 -10 16 -35 11 -35 -7 0 -15 -1
-15 -12 -1 -7 9 -25 18 -40 22 -22 5 -28 12 -28 32 0 26 1 26 25 10 30 -20 45
-20 45 -1 0 8 6 16 13 16 6 1 -4 4 -23 8 -22 4 -36 12 -38 24 -3 14 4 17 37
17 32 0 41 4 41 18 0 15 -2 15 -10 2 -9 -13 -12 -13 -21 3 -6 11 -22 17 -43
17 -21 0 -36 6 -40 15 -4 12 3 15 33 15 22 0 44 6 51 15 7 8 25 15 41 15 26 0
29 -3 29 -34z"/>
</g>
</svg>
