<?xml version="1.0" standalone="no"?>
<!DOCTYPE svg PUBLIC "-//W3C//DTD SVG 20010904//EN"
 "http://www.w3.org/TR/2001/REC-SVG-20010904/DTD/svg10.dtd">
<svg version="1.0" xmlns="http://www.w3.org/2000/svg"
 width="390.000000pt" height="510.000000pt" viewBox="0 0 390.000000 510.000000"
 preserveAspectRatio="xMidYMid meet">
<metadata>
Created by potrace 1.16, written by Peter Selinger 2001-2019
</metadata>
<g transform="translate(0.000000,510.000000) scale(0.100000,-0.100000)"
fill="#000000" stroke="none">
<path d="M1929 4873 c-1 -4 -1 -11 -1 -14 2 -11 -81 -18 -99 -8 -10 5 -26 9
-36 9 -15 0 -16 -2 -3 -10 21 -13 9 -20 -48 -27 -33 -4 -57 -2 -66 6 -11 9
-15 7 -18 -7 -3 -11 -17 -21 -32 -24 -20 -4 -26 -1 -26 13 0 37 -20 18 -21
-18 l-1 -38 -14 33 c-17 38 -33 42 -26 6 3 -18 1 -25 -9 -24 -35 5 -59 -1 -59
-15 0 -8 -4 -15 -9 -15 -5 0 -14 7 -21 15 -17 20 -23 19 -72 -14 -24 -16 -57
-33 -73 -37 -75 -19 -227 -119 -209 -137 4 -4 -1 -9 -10 -13 -9 -3 -13 -10
-10 -16 3 -5 -5 -22 -19 -36 -28 -31 -98 -152 -115 -199 -6 -17 -8 -41 -5 -53
4 -15 -3 -31 -25 -53 -22 -22 -33 -46 -37 -77 -4 -25 -16 -88 -27 -140 -16
-73 -18 -101 -10 -125 6 -16 13 -57 17 -90 4 -33 13 -67 21 -76 8 -9 23 -56
35 -105 19 -85 38 -157 60 -234 19 -65 27 -125 18 -136 -6 -8 -4 -14 6 -18 8
-3 15 -11 15 -18 0 -7 7 -26 16 -43 13 -24 17 -65 18 -203 1 -170 -6 -220 -20
-145 -4 21 -9 33 -11 26 -2 -6 3 -35 11 -64 9 -28 14 -55 11 -59 -3 -4 0 -32
6 -61 6 -30 12 -61 13 -69 4 -26 17 -74 26 -95 5 -11 16 -45 26 -75 10 -30 22
-59 26 -64 4 -6 8 -16 8 -24 0 -7 11 -28 25 -46 14 -18 25 -39 24 -47 0 -8
-22 -52 -48 -99 -37 -66 -54 -86 -72 -88 -39 -5 -79 -24 -89 -42 -5 -9 -25
-20 -43 -23 -19 -3 -79 -28 -134 -55 -54 -27 -113 -53 -130 -56 -17 -4 -52
-20 -78 -37 -25 -16 -70 -34 -98 -40 -29 -6 -62 -17 -73 -25 -12 -7 -52 -23
-88 -34 -37 -12 -72 -27 -79 -33 -6 -7 -39 -25 -72 -40 -33 -16 -86 -45 -118
-64 l-57 -34 0 -770 0 -769 1950 0 1950 0 0 780 0 780 -27 13 c-16 6 -30 14
-33 18 -3 3 -25 17 -50 29 -24 12 -56 31 -70 41 -14 10 -54 27 -89 39 -36 12
-96 37 -135 56 -39 19 -76 34 -81 34 -6 0 -44 20 -85 45 -41 24 -84 45 -95 45
-11 0 -74 27 -141 59 -67 33 -142 62 -167 66 -37 6 -46 12 -51 31 -4 13 -20
39 -36 58 -17 18 -48 70 -70 114 -37 73 -75 118 -126 148 -19 11 -19 12 0 60
10 27 25 74 33 104 9 30 23 61 32 68 15 12 14 13 -2 8 -16 -5 -17 1 -15 53 2
32 7 57 12 54 4 -3 12 1 18 8 7 12 9 11 7 -1 -3 -30 1 -50 11 -50 6 0 10 9 10
20 0 11 4 20 9 20 5 0 9 24 9 53 0 69 5 111 15 118 4 3 9 36 12 73 2 38 7 71
10 74 3 3 5 -2 5 -11 0 -9 5 -17 11 -17 7 0 9 10 5 26 -4 15 -3 23 2 20 11 -7
38 52 28 61 -3 3 -6 -1 -6 -10 0 -9 -4 -17 -10 -17 -12 0 -12 36 -1 65 9 24
-5 95 -23 113 -7 7 -27 14 -45 14 -25 1 -31 4 -25 17 10 25 20 60 43 146 35
127 44 159 52 170 3 6 9 35 12 65 6 60 15 109 23 122 11 17 26 7 21 -14 -6
-21 -6 -21 12 -2 24 26 61 116 61 150 0 22 2 25 15 14 18 -15 19 -7 3 20 -10
16 -10 25 3 47 23 39 32 85 20 93 -6 3 -12 24 -14 47 -2 22 -11 51 -21 64 -9
13 -16 28 -16 33 0 5 -11 19 -25 32 -15 14 -22 29 -19 39 4 8 2 21 -4 28 -6 6
-13 29 -17 49 -6 30 -12 38 -35 43 -39 9 -111 67 -133 108 -12 22 -34 42 -58
52 -21 10 -42 27 -45 39 -10 33 -59 74 -103 87 -23 7 -41 16 -41 20 0 4 -26
10 -58 14 -56 6 -107 24 -72 25 12 1 11 3 -3 11 -9 5 -22 7 -27 4 -6 -4 -36 1
-67 10 -31 9 -64 14 -74 12 -11 -3 -24 4 -34 19 -14 21 -22 23 -88 22 -102 -1
-119 1 -112 11 3 5 1 12 -5 16 -5 3 -11 3 -11 -2z m214 -1082 c-2 -6 2 -11 7
-11 6 0 10 5 10 10 0 6 4 10 10 10 5 0 7 -7 4 -15 -5 -11 1 -15 24 -15 38 0
62 -9 62 -23 0 -15 41 -57 56 -57 14 0 44 -50 44 -72 0 -7 20 -36 45 -65 25
-28 45 -56 45 -61 0 -13 75 -52 102 -52 17 0 18 -2 8 -15 -11 -13 -10 -14 2
-10 19 8 26 -17 33 -117 3 -40 8 -83 11 -95 3 -14 0 -23 -8 -23 -8 0 -4 -7 7
-16 16 -12 17 -16 6 -23 -9 -6 -10 -14 -5 -22 12 -20 15 -55 16 -224 1 -96 -2
-158 -10 -171 -8 -16 -8 -24 1 -33 9 -9 9 -16 -1 -31 -6 -11 -12 -24 -12 -30
0 -6 -10 -24 -22 -41 -18 -24 -20 -32 -9 -38 9 -6 8 -9 -7 -13 -23 -6 -54 -65
-47 -88 3 -11 -4 -21 -20 -30 -14 -7 -25 -21 -25 -30 0 -10 -7 -23 -15 -30 -8
-7 -15 -21 -15 -31 0 -11 -4 -19 -10 -19 -5 0 -10 7 -10 15 0 8 -4 15 -10 15
-5 0 -10 -4 -10 -10 0 -5 -6 -10 -14 -10 -17 0 -46 -37 -46 -59 0 -11 4 -10
19 3 11 10 25 15 31 11 17 -10 -18 -45 -38 -38 -12 5 -14 1 -10 -14 4 -16 0
-23 -15 -27 -12 -3 -26 -1 -33 5 -15 12 -64 -30 -64 -55 0 -9 -11 -21 -24 -26
-13 -5 -27 -14 -31 -20 -3 -5 -10 -8 -15 -5 -5 3 -11 1 -15 -5 -4 -6 -11 -8
-16 -5 -8 6 -13 -8 -10 -27 2 -13 -27 3 -33 18 -7 19 -36 18 -36 -1 0 -8 5
-15 10 -15 6 0 10 -9 10 -19 0 -15 -7 -19 -35 -18 -19 1 -35 5 -35 9 0 4 -7 8
-16 8 -11 0 -15 -6 -11 -20 3 -11 1 -18 -3 -15 -5 3 -17 -8 -26 -25 -15 -25
-20 -28 -34 -17 -17 15 -70 21 -70 9 0 -5 -13 -7 -30 -4 -16 2 -30 8 -30 13 0
5 -6 9 -14 9 -7 0 -21 10 -30 23 -16 21 -16 13 -1 -26 4 -8 -1 -14 -10 -14 -8
0 -13 3 -10 5 8 8 -17 32 -27 26 -12 -7 -75 22 -81 39 -4 8 -11 5 -24 -11
l-18 -22 -20 22 c-11 13 -19 26 -17 31 1 4 -5 7 -13 7 -9 0 -20 12 -25 26 -6
14 -19 28 -30 31 -24 6 -27 33 -4 33 12 0 15 6 9 23 -4 12 -6 34 -6 50 1 15
-3 27 -8 27 -12 0 -23 -29 -15 -41 3 -5 -4 -22 -15 -38 -25 -35 -26 -41 -6
-41 20 0 19 -16 -1 -24 -26 -10 -34 -7 -27 10 5 13 2 15 -15 9 -19 -5 -22 -2
-22 19 0 14 -4 26 -9 26 -6 0 -16 12 -23 28 -7 15 -17 26 -21 24 -11 -4 -67
50 -67 65 0 7 -6 13 -14 13 -28 0 -48 32 -43 66 5 29 2 34 -23 43 -20 6 -31
19 -36 38 -4 15 -11 34 -17 41 -6 8 -6 17 2 26 8 10 9 15 1 18 -34 11 -50 329
-27 523 9 72 19 174 22 227 5 66 11 101 21 109 8 6 17 9 21 6 3 -4 21 6 39 22
18 16 40 33 49 38 9 5 17 17 19 26 1 9 5 20 9 23 4 4 7 18 7 31 0 12 4 23 10
23 5 0 7 6 4 14 -3 8 2 26 11 39 9 14 15 31 14 39 -4 30 4 39 58 64 46 22 59
25 75 15 12 -8 24 -9 31 -3 7 6 36 6 72 0 120 -17 172 -18 202 -3 16 8 55 15
90 15 34 0 65 5 68 11 4 6 14 8 22 5 8 -3 24 -1 36 6 22 12 74 19 135 18 17 0
32 5 32 11 0 6 6 9 13 6 6 -2 11 -10 10 -16z m677 -571 c0 -5 -6 -10 -12 -10
-29 -1 -87 -70 -59 -70 5 0 7 -9 4 -20 -4 -14 0 -20 11 -20 15 0 16 -10 11
-77 -3 -43 -8 -93 -11 -110 -5 -36 -55 -95 -62 -73 -3 7 1 15 7 19 14 9 31 66
31 103 0 14 -11 40 -24 56 -16 18 -26 43 -27 70 -3 43 11 66 71 119 26 23 60
30 60 13z m-289 -1143 c-6 -8 -8 -16 -5 -20 3 -3 0 -15 -6 -27 -10 -18 -8 -24
7 -36 17 -12 17 -13 1 -14 -18 0 -26 -20 -9 -20 4 0 11 -20 14 -45 6 -39 3
-51 -23 -89 -17 -24 -30 -49 -30 -55 0 -6 -7 -8 -15 -5 -9 4 -15 0 -15 -9 0
-9 -20 -32 -45 -53 -25 -20 -44 -39 -41 -41 2 -2 21 3 41 12 21 8 40 14 42 12
1 -2 -12 -24 -31 -48 -19 -24 -48 -70 -65 -102 -17 -32 -40 -71 -51 -86 -10
-16 -17 -31 -14 -33 3 -3 -4 -21 -14 -40 -29 -51 -33 -107 -9 -120 14 -7 17
-7 13 1 -4 5 11 22 34 37 22 15 40 31 40 35 0 5 5 9 10 9 18 0 -17 -55 -55
-89 -20 -17 -40 -31 -46 -31 -6 0 -17 -7 -26 -15 -8 -9 -18 -13 -22 -10 -3 4
2 13 13 20 10 8 15 18 11 24 -3 6 -1 11 5 11 6 0 8 5 3 13 -4 6 -6 22 -4 35 4
36 -7 26 -30 -27 -20 -48 -21 -49 -51 -39 -32 11 -53 -3 -43 -30 3 -7 0 -23
-6 -34 -12 -23 -5 -35 13 -21 7 6 21 9 31 8 20 -4 22 5 5 25 -11 12 -10 12 4
1 10 -7 23 -9 30 -5 8 5 7 -1 -3 -16 -12 -18 -24 -24 -43 -22 -22 3 -26 0 -26
-21 0 -16 -12 -35 -30 -50 -16 -14 -30 -30 -30 -36 0 -6 -7 -8 -15 -4 -21 7
-14 25 10 29 20 3 49 34 40 43 -3 2 -12 -4 -20 -15 -15 -19 -15 -19 -30 0 -13
17 -15 17 -20 3 -6 -14 -9 -13 -26 4 -10 10 -25 19 -31 18 -7 0 -3 -5 10 -11
12 -6 22 -15 22 -20 0 -15 -32 -22 -51 -10 -12 8 -26 9 -43 2 -38 -14 -108
-10 -102 6 3 7 1 16 -4 19 -4 3 -10 0 -12 -6 -4 -11 -108 68 -108 83 0 4 -25
34 -55 65 -30 32 -55 67 -55 79 0 42 -31 121 -55 144 -15 14 -34 41 -43 60 -9
19 -24 41 -33 48 -10 6 -20 26 -24 42 -4 17 -10 28 -13 26 -4 -2 -8 9 -9 25
-1 15 -11 46 -23 68 -11 22 -24 62 -30 88 -14 71 -20 184 -9 178 5 -4 9 1 9 9
0 23 9 20 39 -11 15 -16 46 -41 70 -57 23 -16 47 -38 52 -48 5 -10 16 -18 23
-18 8 0 16 -7 20 -15 3 -8 12 -15 21 -15 8 0 15 -4 15 -10 0 -5 15 -16 33 -24
17 -7 45 -25 60 -40 15 -14 33 -26 39 -26 5 0 19 -11 29 -24 11 -14 30 -28 42
-32 12 -3 30 -13 39 -21 43 -38 187 -33 234 9 11 10 23 15 27 12 8 -8 107 54
107 67 0 13 -28 11 -32 -3 -3 -8 -9 -8 -24 0 -10 6 -13 12 -6 12 23 0 27 2 40
13 10 8 16 7 21 -2 7 -11 13 -11 32 0 20 11 21 14 7 17 -27 5 -22 18 20 43 64
39 212 169 212 187 0 12 61 72 73 72 5 0 4 -6 -2 -13z"/>
<path d="M2306 3383 c-5 -6 -24 -7 -166 -17 -36 -2 -78 -9 -94 -15 -16 -6 -37
-9 -47 -6 -21 7 -69 -21 -69 -41 0 -7 -7 -17 -15 -21 -24 -14 -7 -49 28 -60
21 -6 32 -15 31 -26 -1 -9 3 -17 8 -17 6 0 7 -11 4 -24 -12 -49 12 -64 68 -41
14 6 17 4 14 -6 -9 -27 23 -43 91 -46 57 -3 63 -2 41 9 -14 7 -27 13 -29 14
-2 2 4 11 14 20 14 15 18 15 26 3 5 -8 9 -9 9 -3 0 7 10 30 23 53 22 37 25 40
43 27 18 -14 17 -15 -14 -33 -40 -23 -42 -35 -1 -21 16 6 33 7 37 3 4 -4 1
-10 -6 -12 -6 -3 -10 -9 -6 -14 3 -5 -2 -9 -11 -9 -9 0 -14 -4 -11 -9 10 -15
43 -1 56 25 8 13 22 24 32 24 23 0 58 17 58 29 0 14 -34 46 -63 59 -15 6 -72
12 -125 13 l-97 0 40 16 c22 8 58 15 79 14 22 -1 43 4 47 11 6 9 18 8 51 -2
59 -18 98 -22 98 -10 0 24 -48 73 -92 95 -25 13 -49 21 -52 18z"/>
<path d="M1273 3314 c-30 -25 -53 -54 -53 -65 0 -24 -2 -24 53 5 50 27 73 27
185 -1 77 -20 65 -32 -42 -43 -52 -5 -84 -15 -118 -36 -53 -32 -55 -45 -12
-58 16 -4 37 -12 46 -17 25 -12 41 -11 32 2 -5 8 3 10 26 7 l34 -5 -24 19
c-21 17 -22 20 -8 35 15 14 18 13 32 -15 11 -21 25 -31 51 -36 19 -4 39 -5 43
-2 4 3 14 0 22 -5 13 -8 12 -12 -4 -24 -26 -20 -14 -29 28 -21 32 6 52 28 42
45 -3 4 8 5 25 3 30 -4 37 6 17 26 -9 9 -8 12 5 12 14 0 17 7 15 38 -3 33 -1
37 19 34 22 -3 45 25 48 60 2 23 -37 32 -52 11 -11 -14 -13 -13 -22 11 -7 17
-19 27 -33 27 -13 1 -30 2 -38 3 -8 1 -21 5 -29 10 -7 5 -58 9 -111 10 -54 1
-102 4 -106 9 -12 11 -16 9 -71 -39z"/>
<path d="M1960 2589 c0 -5 9 -9 20 -9 15 0 20 -7 20 -25 0 -24 3 -25 34 -20
20 4 36 2 40 -4 4 -6 16 -11 27 -11 10 0 19 -7 19 -15 0 -8 5 -15 10 -15 6 0
10 -7 10 -16 0 -11 -5 -14 -17 -9 -10 4 -42 9 -72 12 -40 5 -52 3 -47 -5 5 -8
0 -12 -13 -12 -12 0 -24 -1 -28 -2 -5 -1 -33 -8 -63 -16 -30 -7 -68 -13 -85
-13 -21 1 -26 -2 -16 -8 7 -5 69 -7 137 -5 68 1 124 -1 124 -5 0 -4 -6 -13
-12 -20 -11 -12 -9 -13 7 -6 61 22 77 24 101 8 13 -8 31 -13 39 -9 9 3 13 2
10 -4 -3 -5 4 -9 17 -9 13 1 30 -1 40 -5 21 -10 28 16 20 71 -8 52 -76 130
-97 113 -9 -8 -14 -5 -18 11 -4 14 -11 20 -20 16 -8 -3 -19 -1 -25 5 -13 13
-162 19 -162 7z"/>
<path d="M1521 2544 c-37 -19 -91 -79 -93 -105 -2 -15 2 -23 10 -21 6 1 12 -8
12 -19 0 -17 -3 -19 -13 -10 -8 6 -16 8 -19 5 -10 -9 15 -74 28 -74 7 0 30 18
52 40 21 22 48 40 60 40 11 0 22 5 24 12 3 9 34 12 104 11 93 -2 97 -1 59 11
-22 7 -50 19 -62 26 -17 11 -29 11 -61 2 -22 -7 -44 -12 -51 -12 -14 0 -14 35
-1 61 8 15 7 19 -4 19 -8 0 -16 6 -18 13 -2 10 -8 10 -27 1z"/>
</g>
</svg>
